<svg width="250" height="57" viewBox="0 0 250 57" fill="none" xmlns="http://www.w3.org/2000/svg">
<path d="M37.5677 30.2303C37.3065 29.7476 36.9827 29.3002 36.6044 28.8993C36.2264 28.506 35.802 28.1585 35.3401 27.864C36.0193 27.2499 36.5623 26.5048 36.9352 25.6753C37.3081 24.8457 37.503 23.9495 37.5075 23.0426C37.5081 22.2454 37.3654 21.4543 37.0861 20.7058C36.8146 19.9653 36.4177 19.2753 35.9121 18.6649C35.604 18.3145 35.2496 18.0062 34.8585 17.7479C34.0573 17.1465 33.133 16.7227 32.1493 16.5056C31.6865 16.3916 31.2116 16.332 30.7345 16.3281H18.2119V39.9914H31.7881C32.6805 40.0047 33.5648 39.8229 34.3769 39.459C35.1681 39.1117 35.8914 38.6312 36.5141 38.0392C37.1141 37.4314 37.5939 36.7192 37.929 35.9391C38.2684 35.1326 38.4423 34.2681 38.4407 33.3953C38.4322 32.8742 38.3512 32.3567 38.1999 31.8572C38.0591 31.2911 37.8467 30.7446 37.5677 30.2303V30.2303ZM24.5033 21.0904H28.8079C29.4546 21.0904 30.0748 21.3428 30.5321 21.7921C30.9893 22.2414 31.2462 22.8508 31.2462 23.4863C31.2462 24.1217 30.9893 24.7311 30.5321 25.1804C30.0748 25.6298 29.4546 25.8822 28.8079 25.8822H24.5033V21.0904ZM30.7345 34.2235C30.5163 34.4549 30.2504 34.6379 29.9545 34.7603C29.6586 34.8828 29.3396 34.9418 29.0187 34.9334H24.5033V30.1712H29.0187C29.3374 30.1672 29.6538 30.2256 29.9495 30.3427C30.2451 30.4599 30.5142 30.6336 30.741 30.8537C30.9678 31.0738 31.1479 31.336 31.2708 31.6251C31.3937 31.9141 31.457 32.2242 31.4569 32.5375C31.4635 32.8526 31.4026 33.1655 31.2781 33.456C31.1537 33.7464 30.9685 34.0079 30.7345 34.2235V34.2235Z" fill="#F4A7BC"/>
<path d="M50.4213 16.3574H43.7988V39.9024H63.0342V34.0753H50.4213V16.3574Z" fill="#F4A7BC"/>
<path d="M75.6175 16.3574L66.7373 39.9024H73.5103L74.7445 36.6487L76.5206 31.1766L78.4471 24.9649L80.3135 31.1766L82.1196 36.6487L83.3538 39.9024H90.0967L81.2466 16.3574H75.6175Z" fill="#F4A7BC"/>
<path d="M100.03 33.6324C100.874 34.0693 101.815 34.2929 102.769 34.2831C103.601 34.3026 104.426 34.1304 105.177 33.7803C106.624 33.1351 107.766 31.9712 108.368 30.5266C108.671 29.7733 108.824 28.9701 108.82 28.1603C108.821 26.5775 108.207 25.054 107.104 23.9009C106.577 23.3152 105.917 22.8593 105.177 22.5698C104.421 22.2333 103.599 22.0618 102.769 22.067C101.414 22.0855 100.098 22.5199 99.0064 23.3093L94.0395 19.0795C95.2481 18.0032 96.6454 17.1514 98.1635 16.5652C99.6309 15.9997 101.193 15.7088 102.769 15.7074C104.475 15.6936 106.166 16.0259 107.736 16.6836C109.233 17.3217 110.592 18.2353 111.74 19.3753C112.864 20.536 113.762 21.8894 114.389 23.3684C115.044 24.8892 115.381 26.5237 115.381 28.1751C115.381 29.8264 115.044 31.4609 114.389 32.9817C113.743 34.4561 112.824 35.8 111.679 36.9453C110.502 38.1228 109.096 39.0567 107.545 39.6917C105.994 40.3267 104.329 40.6501 102.649 40.6427C100.718 40.64 98.8136 40.205 97.0798 39.3708C95.3402 38.5086 93.8024 37.2997 92.5645 35.8213L97.6517 31.7393C98.2901 32.5375 99.1028 33.1845 100.03 33.6324V33.6324Z" fill="#F4A7BC"/>
<path d="M132.42 16.1504L125.828 23.9001V16.1504H119.266V39.2221H125.828V31.4428L132.42 39.2221H140.187L130.705 27.0651L140.488 16.1504H132.42Z" fill="#F4A7BC"/>
<path d="M163.245 18.4288C162.415 17.7455 161.467 17.2145 160.445 16.8611C159.385 16.4809 158.263 16.2906 157.134 16.2991H146.357V39.3412H152.769V32.1831H157.134C158.271 32.1904 159.398 31.9689 160.445 31.5324C161.48 31.1254 162.429 30.5337 163.245 29.7872C164.063 29.0523 164.727 28.1683 165.201 27.1842C165.688 26.1878 165.935 25.0948 165.924 23.9897C165.912 22.9629 165.665 21.9519 165.201 21.0318C164.75 20.0343 164.082 19.1458 163.245 18.4288V18.4288ZM159.151 24.8771C159.007 25.1726 158.813 25.4425 158.579 25.6757C158.316 25.8935 158.022 26.0728 157.706 26.2081C157.368 26.3286 157.012 26.3887 156.652 26.3856H152.92V21.4459H156.532C156.891 21.4428 157.248 21.5029 157.586 21.6233C157.913 21.7362 158.211 21.9179 158.459 22.1558C158.685 22.3845 158.878 22.6434 159.031 22.9248C159.17 23.232 159.242 23.5646 159.242 23.9009C159.242 24.2373 159.17 24.5699 159.031 24.8771H159.151Z" fill="#F4A7BC"/>
<path d="M177.032 16.2988H170.59V39.341H177.032V16.2988Z" fill="#F4A7BC"/>
<path d="M189.404 28.7221L197.742 16.2988H204.094V39.3114H197.712V27.0065L189.404 39.3114H182.992V16.2988H189.404V28.7221Z" fill="#F4A7BC"/>
<path d="M231.789 16.2988H223.691L217.129 24.0486V16.2988H210.566V39.341H217.129V31.5912L223.691 39.341H231.488L222.005 27.1839L231.789 16.2988Z" fill="#F4A7BC"/>
</svg>
