<?xml version="1.0" standalone="no"?>
<svg viewBox="0 0 200 200" xmlns="http://www.w3.org/2000/svg">
  <path fill="#FF0066" d="M34.4,-62.8C45.2,-53.4,54.9,-45.4,65.5,-35.1C76.2,-24.9,87.7,-12.4,88.1,0.3C88.6,13,78.1,26,68.4,38C58.8,50,50.2,61,38.9,65.2C27.7,69.5,13.8,67.1,-1.3,69.3C-16.4,71.5,-32.8,78.4,-45.6,75C-58.3,71.6,-67.4,57.8,-69.8,43.6C-72.2,29.4,-68,14.7,-65.6,1.4C-63.1,-11.9,-62.5,-23.8,-58,-34.4C-53.4,-44.9,-45,-54.1,-34.7,-63.7C-24.3,-73.3,-12.2,-83.3,-0.2,-83.1C11.8,-82.8,23.7,-72.1,34.4,-62.8Z" transform="translate(100 100)" />
</svg>
