<?xml version="1.0" standalone="no"?>
<svg viewBox="0 0 200 200" xmlns="http://www.w3.org/2000/svg">
  <path fill="#FF0066" d="M30.8,-58.2C39.8,-48.1,46.9,-39.6,55.1,-30.2C63.3,-20.8,72.6,-10.4,74.1,0.9C75.6,12.1,69.3,24.2,63.6,38C57.8,51.7,52.7,67,42.2,75.1C31.7,83.2,15.8,84,1,82.3C-13.8,80.5,-27.7,76.2,-35.7,66.7C-43.7,57.2,-45.9,42.5,-53.3,30.5C-60.7,18.5,-73.3,9.3,-78.4,-2.9C-83.5,-15.1,-81,-30.2,-72,-39.5C-63.1,-48.8,-47.6,-52.2,-34.5,-59.9C-21.4,-67.6,-10.7,-79.7,0.1,-79.9C10.9,-80,21.8,-68.3,30.8,-58.2Z" transform="translate(100 100)" />
</svg>
