<?xml version="1.0" standalone="no"?>
<svg viewBox="0 0 200 200" xmlns="http://www.w3.org/2000/svg">
  <path fill="#FF0066" d="M40.7,-75.1C51,-64.6,56.5,-50.2,63.3,-37C70.1,-23.8,78.3,-11.9,77.6,-0.4C76.9,11.1,67.3,22.2,60.6,35.6C53.9,49,50.1,64.6,40.5,73.2C30.9,81.8,15.4,83.4,-0.2,83.8C-15.8,84.1,-31.6,83.1,-43.6,75.8C-55.6,68.6,-63.8,55.1,-70.6,41.4C-77.5,27.7,-82.9,13.9,-83.6,-0.4C-84.4,-14.7,-80.4,-29.4,-72.7,-41.6C-65,-53.8,-53.7,-63.6,-40.9,-72.7C-28.2,-81.8,-14.1,-90.3,0.5,-91.3C15.2,-92.2,30.4,-85.6,40.7,-75.1Z" transform="translate(100 100)" />
</svg>
